<?xml version="1.0" encoding="utf-8"?>
<!-- Generator: Adobe Illustrator 21.0.0, SVG Export Plug-In . SVG Version: 6.00 Build 0)  -->
<svg version="1.1" id="Layer_1" xmlns="http://www.w3.org/2000/svg" xmlns:xlink="http://www.w3.org/1999/xlink" x="0px" y="0px"
	 viewBox="0 0 260 260" style="enable-background:new 0 0 260 260;" xml:space="preserve">
<style type="text/css">
	.st0{fill:#CECECE;}
	.st1{fill:#FFFFFF;}
</style>
<path class="st0" d="M194,2L92.4,103.6L27.6,53.2L2,66v128l25.6,12.8l64.8-50.4L194,258l64-25.6V27.6L194,2z M27,169V91l39,39
	L27,169z M126.4,130L194,77v106L126.4,130z"/>
<path class="st1" d="M194,2l64,25.6v204.8L194,258L92.4,156.4l-64.8,50.4L2,194V66l25.6-12.8l64.8,50.4L194,2 M194,183V77l-67.6,53
	L194,183 M27,169l39-39L27,91V169 M193.8,0.8l-0.5,0.5l-101,101L28.2,52.4L27.7,52l-0.6,0.3L1.6,65.1L1,65.4v129.2l0.6,0.3
	l25.6,12.8l0.6,0.3l0.5-0.4l64.1-49.9l101,101l0.5,0.5l0.6-0.2l64-25.6l0.6-0.3V26.9l-0.6-0.3L194.5,1L193.8,0.8z M128,130l65-50.9
	V181L128,130z M28,166.6V93.4L64.6,130L28,166.6z"/>
</svg>
